<svg id="인스타" xmlns="http://www.w3.org/2000/svg" width="48" height="48" viewBox="0 0 48 48">
  <g id="box" fill="none" stroke="#fff" stroke-width="2">
    <rect width="48" height="48" rx="24" stroke="none"/>
    <rect x="1" y="1" width="46" height="46" rx="23" fill="none"/>
  </g>
  <g id="insta_icon" transform="translate(-1707 -8949.975)">
    <g id="insta_icon-2" data-name="insta_icon" transform="translate(1721.999 8964.975)">
      <path id="빼기_5" data-name="빼기 5" d="M12.519,18H5.483A5.489,5.489,0,0,1,0,12.518V5.482A5.489,5.489,0,0,1,5.483,0h7.035A5.489,5.489,0,0,1,18,5.482v7.036A5.489,5.489,0,0,1,12.519,18ZM5.476,1.648A3.845,3.845,0,0,0,1.635,5.489v7.035A3.847,3.847,0,0,0,5.476,16.37h7.036a3.849,3.849,0,0,0,3.845-3.845V5.489a3.847,3.847,0,0,0-3.845-3.841Z" transform="translate(0 0)" fill="#fff"/>
      <path id="빼기_4" data-name="빼기 4" d="M4.5,9a4.5,4.5,0,1,1,4.5-4.5A4.507,4.507,0,0,1,4.5,9Zm0-7.564A3.063,3.063,0,1,0,7.569,4.5,3.066,3.066,0,0,0,4.5,1.439Z" transform="translate(4.492 4.501)" fill="#fff"/>
      <circle id="타원_31" data-name="타원 31" cx="0.796" cy="0.796" r="0.796" transform="matrix(0.987, -0.16, 0.16, 0.987, 13.022, 3.37)" fill="#fff"/>
    </g>
  </g>
</svg>
