<svg id="유튜브" xmlns="http://www.w3.org/2000/svg" width="48" height="48" viewBox="0 0 48 48">
  <g id="box" fill="none" stroke="#fff" stroke-width="2">
    <rect width="48" height="48" rx="24" stroke="none"/>
    <rect x="1" y="1" width="46" height="46" rx="23" fill="none"/>
  </g>
  <path id="youtube_icon" d="M20.306,62.26a2.381,2.381,0,0,0-1.847-2,62.222,62.222,0,0,0-16.324,0,2.381,2.381,0,0,0-1.848,2,47.628,47.628,0,0,0,0,10.443,2.38,2.38,0,0,0,1.848,2,62.223,62.223,0,0,0,16.324,0,2.38,2.38,0,0,0,1.847-2A47.622,47.622,0,0,0,20.306,62.26ZM8.581,71.135V63.83l5.148,3.653Z" transform="translate(14.407 -43.025)" fill="#fff"/>
  <rect id="영역" width="21" height="21" transform="translate(14 14)" fill="red" opacity="0"/>
</svg>
