<svg id="카카오톡" xmlns="http://www.w3.org/2000/svg" width="48" height="48" viewBox="0 0 48 48">
  <g id="box" fill="none" stroke="#fff" stroke-width="2">
    <rect width="48" height="48" rx="24" stroke="none"/>
    <rect x="1" y="1" width="46" height="46" rx="23" fill="none"/>
  </g>
  <g id="kakao_icon" transform="translate(13 13.999)">
    <path id="제외_1" data-name="제외 1" d="M-16017.9,13607.411a.185.185,0,0,1-.16-.07c-.16-.218.073-.956.46-2.18l0-.006.027-.088c.16-.507.341-1.082.535-1.746-3.106-1.53-4.962-4.158-4.962-7.028,0-4.572,4.749-8.292,10.587-8.292s10.592,3.72,10.592,8.292-4.751,8.295-10.592,8.295a13.1,13.1,0,0,1-1.878-.133l-1.107.778C-16016.461,13606.684-16017.5,13607.411-16017.9,13607.411Zm4.25-13.588a.849.849,0,0,0-.812.592c-.31.959-.659,1.795-.939,2.466l0,0c-.521,1.248-.836,2-.378,2.214a1.041,1.041,0,0,0,.419.107c.4,0,.535-.394.651-.74a2.343,2.343,0,0,1,.133-.341h1.861a2.271,2.271,0,0,1,.129.334c.116.349.248.745.653.745a1.038,1.038,0,0,0,.416-.105c.46-.213.15-.955-.363-2.185-.283-.676-.635-1.518-.951-2.5A.854.854,0,0,0-16013.652,13593.823Zm-4.39,1.17a.784.784,0,0,1,.163.013,20.429,20.429,0,0,1,0,2.354v.021c-.037.847-.062,1.405.178,1.656a.572.572,0,0,0,.433.151.567.567,0,0,0,.433-.152c.241-.251.217-.812.18-1.662v-.029a20.554,20.554,0,0,1,0-2.338.966.966,0,0,1,.177-.013c.067,0,.141,0,.219.007h.046c.1.006.2.012.3.012.375,0,.806-.068.806-.6,0-.517-.386-.618-1.051-.618-.221,0-.488.012-.725.022l-.082,0c-.281.011-.631.024-1,.024-.314,0-.6-.009-.868-.028a.6.6,0,0,0-.6.6c0,.532.456.6.853.6.1,0,.2,0,.29-.01S-16018.113,13594.993-16018.042,13594.993Zm11.04-1.178a.61.61,0,0,0-.611.607,27.119,27.119,0,0,1,0,2.792v.006c-.038.968-.061,1.552.188,1.811a.557.557,0,0,0,.422.148.61.61,0,0,0,.611-.607v-1.322l.213-.21,1.432,1.887a.574.574,0,0,0,.469.246.678.678,0,0,0,.584-.367.56.56,0,0,0-.075-.611l-1.5-1.979,1.391-1.383a.487.487,0,0,0,.092-.549.609.609,0,0,0-.558-.384c-.224,0-.292.071-.741.533-.242.249-.647.666-1.3,1.292a3.44,3.44,0,0,1,0-.586c.023-.432.05-.92-.183-1.165A.554.554,0,0,0-16007,13593.815Zm-2.928,5.262c.183,0,.369.008.532.016l.047,0h.017c.193.009.366.017.528.017.5,0,.956-.069.959-.568s-.477-.573-.893-.573c-.133,0-.273.007-.406.015l-.033,0c-.122.007-.241.013-.352.013a1.767,1.767,0,0,1-.2-.011v-3.566a.588.588,0,0,0-.624-.6.587.587,0,0,0-.622.6,28.17,28.17,0,0,1,0,2.82c-.037.918-.06,1.473.174,1.714a.529.529,0,0,0,.412.143A4.434,4.434,0,0,1-16009.93,13599.077Zm-3.111-2.024h-1.219l.607-1.722.611,1.721Z" transform="translate(16022 -13588.001)" fill="#fff" stroke="rgba(0,0,0,0)" stroke-miterlimit="10" stroke-width="1"/>
  </g>
  <rect id="영역" width="21" height="21" transform="translate(13 13)" fill="#fff" opacity="0"/>
</svg>
