<svg xmlns="http://www.w3.org/2000/svg" xmlns:xlink="http://www.w3.org/1999/xlink" width="410.499" height="181.323" viewBox="0 0 410.499 181.323">
  <defs>
    <clipPath id="clip-path">
      <rect id="사각형_16345" data-name="사각형 16345" width="410" height="180" fill="#fef102" stroke="rgba(0,0,0,0)" stroke-miterlimit="10" stroke-width="1"/>
    </clipPath>
  </defs>
  <g id="logo" transform="translate(0.499 0.499)">
    <path id="B" d="M11376.04,14152.324h-25.611V14122h51.771v-24.109h0v-20.728h-51.773v-30.325h51.771v-23.786h0v-20.729h-51.773V13972h55.95v21.979h26.166v30.325h0v29.071h-26.163v15.439h26.166v30.324h0v29.075h-26.163v24.109ZM11307,14152v-30.325h30.339V14152Zm0-38.395V13972h30.339v141.605Z" transform="translate(-11307 -13972)" fill="#fef102" stroke="rgba(0,0,0,0)" stroke-miterlimit="10" stroke-width="1"/>
    <g id="그룹_29309" data-name="그룹 29309">
      <g id="그룹_29308" data-name="그룹 29308" clip-path="url(#clip-path)">
        <path id="패스_771" data-name="패스 771" d="M284.143,198.534q3.164.77,6.5,1.8a24.817,24.817,0,0,1,6.031,2.736,15.422,15.422,0,0,1,4.449,4.232,10.757,10.757,0,0,1,1.754,6.285,11.075,11.075,0,0,1-1.967,6.712,15.272,15.272,0,0,1-4.962,4.361,21.849,21.849,0,0,1-6.631,2.351,38.227,38.227,0,0,1-7.058.684,23,23,0,0,1-11.849-3.035,26.225,26.225,0,0,1-8.769-8.593l11.122-5.9a11.887,11.887,0,0,0,10.01,5.9,19.3,19.3,0,0,0,5.689-.6q1.753-.6,1.754-1.625,0-.854-1.155-1.5a16.458,16.458,0,0,0-2.652-1.154,24.277,24.277,0,0,0-2.952-.812q-1.456-.3-2.053-.385a58.833,58.833,0,0,1-6.245-1.582,22.91,22.91,0,0,1-5.732-2.651,14.9,14.9,0,0,1-4.235-4.1,10.419,10.419,0,0,1-1.668-6.028,12.81,12.81,0,0,1,1.582-6.456,14.786,14.786,0,0,1,4.149-4.66,18.349,18.349,0,0,1,5.86-2.822,24.342,24.342,0,0,1,6.716-.941,23.413,23.413,0,0,1,11.507,2.907,26.537,26.537,0,0,1,8.854,7.952l-10.352,6.5a11.917,11.917,0,0,0-4.492-4.361,10.943,10.943,0,0,0-5.09-1.368,10.571,10.571,0,0,0-4.449.769q-1.626.77-1.626,1.967c0,.342.257.671.77.983a13.375,13.375,0,0,0,1.925.941,22.453,22.453,0,0,0,2.566.855q1.411.385,2.695.641" transform="translate(-116.677 -80.658)" fill="#fef102" stroke="rgba(0,0,0,0)" stroke-miterlimit="10" stroke-width="1"/>
        <path id="패스_772" data-name="패스 772" d="M379.821,216.282a26.872,26.872,0,0,1-5,1.155,62.749,62.749,0,0,1-8.769.47,12.967,12.967,0,0,1-5.261-1.069,13.325,13.325,0,0,1-4.235-2.907,14.243,14.243,0,0,1-2.866-4.276,12.925,12.925,0,0,1-1.069-5.258l-.085-20.607h-8.9V172.675h8.9V158.823h12.833v13.852h10.609l-2.481,11.116h-8.127v17.956a4.673,4.673,0,0,0,1.412,3.206,4.468,4.468,0,0,0,3.293,1.326,11.8,11.8,0,0,0,4.834-.727q1.5-.725,2.181-1.069Z" transform="translate(-153.24 -70.874)" fill="#fef102" stroke="rgba(0,0,0,0)" stroke-miterlimit="10" stroke-width="1"/>
        <path id="패스_773" data-name="패스 773" d="M459.562,227.36H446.73v-4.447a21.4,21.4,0,0,1-5.646,4.489,14.144,14.144,0,0,1-6.844,1.667,16.993,16.993,0,0,1-7.015-1.454,17.585,17.585,0,0,1-5.646-3.976,19.377,19.377,0,0,1-3.807-5.857,18.236,18.236,0,0,1-1.412-7.182V183.838h12.832v24.283a9.453,9.453,0,0,0,.685,3.634,9.624,9.624,0,0,0,1.882,2.949,8.748,8.748,0,0,0,2.78,2.01,8.222,8.222,0,0,0,6.758,0,9.287,9.287,0,0,0,2.824-2.01,9.063,9.063,0,0,0,1.925-3.035,10.148,10.148,0,0,0,.684-3.72V183.838h12.833Z" transform="translate(-185.671 -82.036)" fill="#fef102" stroke="rgba(0,0,0,0)" stroke-miterlimit="10" stroke-width="1"/>
        <path id="패스_774" data-name="패스 774" d="M555.877,154.346V214.2H543.044v-3.458a25.729,25.729,0,0,1-6.074,3.747,16.937,16.937,0,0,1-6.844,1.42,22.938,22.938,0,0,1-9.154-1.839,23.2,23.2,0,0,1-7.443-5.044,24.052,24.052,0,0,1-5-7.482,22.667,22.667,0,0,1-1.839-9.063,23.384,23.384,0,0,1,6.887-16.674,24.117,24.117,0,0,1,7.485-5,22.725,22.725,0,0,1,9.069-1.839,17.308,17.308,0,0,1,6.887,1.412,25.372,25.372,0,0,1,6.031,3.634V154.346Zm-24.425,49.935a11.751,11.751,0,0,0,4.679-.936,12.014,12.014,0,0,0,3.778-2.514,11.889,11.889,0,0,0,2.533-3.748,11.876,11.876,0,0,0,0-9.286,11.9,11.9,0,0,0-2.533-3.749,12.022,12.022,0,0,0-3.778-2.513,12.14,12.14,0,0,0-9.359,0,12.018,12.018,0,0,0-3.777,2.513,11.9,11.9,0,0,0-2.533,3.749,11.89,11.89,0,0,0,0,9.286,11.889,11.889,0,0,0,2.533,3.748,12.01,12.01,0,0,0,3.777,2.514,11.762,11.762,0,0,0,4.68.936" transform="translate(-225.951 -68.876)" fill="#fef102" stroke="rgba(0,0,0,0)" stroke-miterlimit="10" stroke-width="1"/>
        <path id="패스_775" data-name="패스 775" d="M618.016,148.17a7.281,7.281,0,0,1,5.359,2.223,7.665,7.665,0,0,1,0,10.774,7.572,7.572,0,0,1-10.719,0,7.61,7.61,0,0,1,5.36-13m-6.373,19.751h12.833v43.522H611.643Z" transform="translate(-272.222 -66.12)" fill="#fef102" stroke="rgba(0,0,0,0)" stroke-miterlimit="10" stroke-width="1"/>
        <path id="패스_776" data-name="패스 776" d="M674.172,227.692a26.511,26.511,0,0,1-9.908-1.839,25.262,25.262,0,0,1-8.029-5.044,23.786,23.786,0,0,1-5.381-7.482,21.978,21.978,0,0,1,.043-18.256,23.414,23.414,0,0,1,5.466-7.481,26.362,26.362,0,0,1,8.028-5,26.339,26.339,0,0,1,27.629,5.13,23.775,23.775,0,0,1,5.38,7.482,21.864,21.864,0,0,1-.043,18.212,23.823,23.823,0,0,1-5.423,7.439,25.661,25.661,0,0,1-8.028,5,26.053,26.053,0,0,1-9.735,1.839m.043-35.314a12.243,12.243,0,0,0-5.09,1.022,11.794,11.794,0,0,0-3.85,2.726,13.006,13.006,0,0,0-2.481,3.835,10.888,10.888,0,0,0-.9,4.259,11.76,11.76,0,0,0,7.1,10.82,12.771,12.771,0,0,0,5.219,1.022,12.48,12.48,0,0,0,5.176-1.022,11.822,11.822,0,0,0,3.85-2.726,12.507,12.507,0,0,0,2.438-3.792,11.259,11.259,0,0,0,.855-4.3,10.889,10.889,0,0,0-.9-4.259,13.027,13.027,0,0,0-2.481-3.835,11.83,11.83,0,0,0-3.85-2.726,12.246,12.246,0,0,0-5.09-1.022" transform="translate(-289.366 -80.658)" fill="#fef102" stroke="rgba(0,0,0,0)" stroke-miterlimit="10" stroke-width="1"/>
        <path id="패스_777" data-name="패스 777" d="M554.206,301.268a6.1,6.1,0,0,1-2.463,1.92,8.214,8.214,0,0,1-3.411.7,6.214,6.214,0,0,1-2.485-.509,6.5,6.5,0,0,1-2.064-1.4,6.912,6.912,0,0,1-1.412-2.072,6.076,6.076,0,0,1-.529-2.51,6.459,6.459,0,0,1,.506-2.545,6.393,6.393,0,0,1,1.388-2.072A6.62,6.62,0,0,1,545.8,291.4a6.328,6.328,0,0,1,2.532-.509,8.083,8.083,0,0,1,3.4.7,6.239,6.239,0,0,1,2.428,1.882l-2.819,1.941a2.817,2.817,0,0,0-1.148-.947,4.323,4.323,0,0,0-1.86-.355,2.584,2.584,0,0,0-1.149.26,3.039,3.039,0,0,0-.936.708,3.245,3.245,0,0,0-.627,1.049,3.558,3.558,0,0,0-.226,1.262,3.258,3.258,0,0,0,.237,1.227,3.5,3.5,0,0,0,.651,1.05,3.249,3.249,0,0,0,.947.732,2.4,2.4,0,0,0,1.1.271,4.368,4.368,0,0,0,1.8-.331,2.721,2.721,0,0,0,1.113-.852Z" transform="translate(-241.629 -129.809)" fill="#fef102" stroke="rgba(0,0,0,0)" stroke-miterlimit="10" stroke-width="1"/>
        <path id="패스_778" data-name="패스 778" d="M572.739,303.891a7.342,7.342,0,0,1-2.744-.509,6.993,6.993,0,0,1-2.223-1.4,6.576,6.576,0,0,1-1.489-2.072,6.087,6.087,0,0,1,.011-5.054,6.481,6.481,0,0,1,1.514-2.072,7.3,7.3,0,0,1,2.223-1.385,7.292,7.292,0,0,1,7.649,1.42,6.582,6.582,0,0,1,1.49,2.072,6.055,6.055,0,0,1-.012,5.043,6.6,6.6,0,0,1-1.5,2.059,7.1,7.1,0,0,1-2.223,1.385,7.213,7.213,0,0,1-2.7.509m.012-9.777a3.391,3.391,0,0,0-1.41.283,3.268,3.268,0,0,0-1.065.755,3.6,3.6,0,0,0-.687,1.062,3.01,3.01,0,0,0-.249,1.18,3.257,3.257,0,0,0,1.966,3,3.533,3.533,0,0,0,1.445.283,3.452,3.452,0,0,0,1.433-.283,3.274,3.274,0,0,0,1.065-.755,3.469,3.469,0,0,0,.675-1.049,3.125,3.125,0,0,0,.237-1.192,3.007,3.007,0,0,0-.249-1.18,3.605,3.605,0,0,0-.686-1.062,3.277,3.277,0,0,0-1.066-.755,3.392,3.392,0,0,0-1.41-.283" transform="translate(-252.286 -129.809)" fill="#fef102" stroke="rgba(0,0,0,0)" stroke-miterlimit="10" stroke-width="1"/>
        <path id="패스_779" data-name="패스 779" d="M609.677,290.893a4.293,4.293,0,0,1,1.836.4,4.726,4.726,0,0,1,1.5,1.1,5.247,5.247,0,0,1,1.007,1.621,5.343,5.343,0,0,1,.367,1.989v7.41h-3.553v-6.724a2.807,2.807,0,0,0-.178-.994,2.847,2.847,0,0,0-.474-.829,2.166,2.166,0,0,0-.7-.556,1.886,1.886,0,0,0-.853-.2,1.8,1.8,0,0,0-.853.213,2.31,2.31,0,0,0-.7.568,2.827,2.827,0,0,0-.474.828,2.875,2.875,0,0,0-.178,1.018v6.676h-3.553v-6.724a2.793,2.793,0,0,0-.178-.994,2.848,2.848,0,0,0-.476-.829,2.17,2.17,0,0,0-.7-.556,1.9,1.9,0,0,0-.857-.2,1.819,1.819,0,0,0-.858.213,2.327,2.327,0,0,0-.7.568,2.873,2.873,0,0,0-.654,1.847v6.676H594.9v-12.05h3.553l.024,1.3a5.512,5.512,0,0,1,1.362-1.29,3.126,3.126,0,0,1,1.741-.485,4.653,4.653,0,0,1,2.215.5,4.363,4.363,0,0,1,1.528,1.326,5.6,5.6,0,0,1,1.729-1.3,5.869,5.869,0,0,1,2.629-.521" transform="translate(-265.288 -129.809)" fill="#fef102" stroke="rgba(0,0,0,0)" stroke-miterlimit="10" stroke-width="1"/>
        <path id="패스_780" data-name="패스 780" d="M641.52,290.893a6.264,6.264,0,0,1,2.5.509,6.669,6.669,0,0,1,2.068,1.385,6.481,6.481,0,0,1,1.9,4.616,6.3,6.3,0,0,1-.508,2.51,6.69,6.69,0,0,1-1.382,2.072,6.416,6.416,0,0,1-2.056,1.4,6.319,6.319,0,0,1-2.528.509,4.668,4.668,0,0,1-1.891-.393,7.066,7.066,0,0,1-1.677-1.038v6.876H634.4V291.367h3.553v.923a6.979,6.979,0,0,1,1.665-1.006,4.777,4.777,0,0,1,1.9-.391m-.371,9.778a3.24,3.24,0,0,0,1.291-.259,3.235,3.235,0,0,0,1.741-1.734,3.3,3.3,0,0,0,0-2.572,3.233,3.233,0,0,0-1.741-1.733,3.338,3.338,0,0,0-2.582,0,3.233,3.233,0,0,0-1.741,1.733,3.3,3.3,0,0,0,0,2.572,3.282,3.282,0,0,0,.7,1.038,3.318,3.318,0,0,0,1.042.7,3.239,3.239,0,0,0,1.291.259" transform="translate(-282.904 -129.809)" fill="#fef102" stroke="rgba(0,0,0,0)" stroke-miterlimit="10" stroke-width="1"/>
        <path id="패스_781" data-name="패스 781" d="M675.336,291.367v12.05h-3.553v-.957a6.671,6.671,0,0,1-1.658,1.038,4.686,4.686,0,0,1-1.895.393,6.483,6.483,0,0,1-4.619-1.905,6.681,6.681,0,0,1-1.386-2.072,6.457,6.457,0,0,1,.012-5.055,6.548,6.548,0,0,1,1.409-2.071,6.678,6.678,0,0,1,2.072-1.385,6.289,6.289,0,0,1,2.511-.509,4.713,4.713,0,0,1,1.895.391,7.111,7.111,0,0,1,1.658,1.006v-.923Zm-6.727,9.3a3.181,3.181,0,0,0,1.267-.259,3.474,3.474,0,0,0,1.054-.7,3.256,3.256,0,0,0,0-4.647,3.461,3.461,0,0,0-1.054-.7,3.171,3.171,0,0,0-1.267-.26,3.229,3.229,0,0,0-1.291.26,3.233,3.233,0,0,0-1.741,1.733,3.3,3.3,0,0,0,0,2.572,3.28,3.28,0,0,0,.7,1.038,3.318,3.318,0,0,0,1.042.7,3.238,3.238,0,0,0,1.291.259" transform="translate(-295.086 -129.809)" fill="#fef102" stroke="rgba(0,0,0,0)" stroke-miterlimit="10" stroke-width="1"/>
        <path id="패스_782" data-name="패스 782" d="M698.4,290.893a4.92,4.92,0,0,1,1.99.4,5.217,5.217,0,0,1,2.724,2.722,4.925,4.925,0,0,1,.4,1.989v7.41H699.96v-6.724a2.4,2.4,0,0,0-.213-.994,2.777,2.777,0,0,0-.569-.829,2.607,2.607,0,0,0-.829-.556,2.525,2.525,0,0,0-1-.2,2.456,2.456,0,0,0-1.018.213,2.741,2.741,0,0,0-1.4,1.4,2.458,2.458,0,0,0-.213,1.018v6.676h-3.553v-12.05h3.553v1.373a6.3,6.3,0,0,1,1.647-1.338,4.087,4.087,0,0,1,2.025-.509" transform="translate(-308.221 -129.809)" fill="#fef102" stroke="rgba(0,0,0,0)" stroke-miterlimit="10" stroke-width="1"/>
        <path id="패스_783" data-name="패스 783" d="M723.128,306.095a9.358,9.358,0,0,1-1.22,2.083,5.226,5.226,0,0,1-1.4,1.243,5.043,5.043,0,0,1-1.6.6,9.447,9.447,0,0,1-1.8.166,6.55,6.55,0,0,1-2.084-.332l.734-3.243a2.58,2.58,0,0,0,.675.272,2.864,2.864,0,0,0,.675.083v.023a4.884,4.884,0,0,0,.853-.071,2.265,2.265,0,0,0,1.421-.852,4.578,4.578,0,0,0,.592-1.018l.5-1.255h-.711l-4.737-12.05h3.743l3.127,8.239,3.15-8.239h3.743Z" transform="translate(-318.859 -130.19)" fill="#fef102" stroke="rgba(0,0,0,0)" stroke-miterlimit="10" stroke-width="1"/>
      </g>
    </g>
  </g>
</svg>
