<svg xmlns="http://www.w3.org/2000/svg" xmlns:xlink="http://www.w3.org/1999/xlink" width="206.475" height="71.309" viewBox="0 0 206.475 71.309">
  <defs>
    <clipPath id="clip-path">
      <rect id="사각형_16498" data-name="사각형 16498" width="206.475" height="71.309" fill="none"/>
    </clipPath>
  </defs>
  <g id="그룹_29606" data-name="그룹 29606" transform="translate(0 -189.581)">
    <g id="그룹_29605" data-name="그룹 29605" transform="translate(0 189.581)" clip-path="url(#clip-path)">
      <path id="패스_7886" data-name="패스 7886" d="M185.494,253.586H20.981A21.042,21.042,0,0,1,0,232.605V220.323a21.042,21.042,0,0,1,20.981-20.981H185.494a21.042,21.042,0,0,1,20.981,20.981v12.283a21.042,21.042,0,0,1-20.981,20.981" transform="translate(0 -182.276)" fill="#6741f2"/>
      <path id="패스_7887" data-name="패스 7887" d="M46.013,189.581,25.244,215.545H66.782Z" transform="translate(18.892 -189.581)" fill="#6741f2"/>
      <path id="패스_7888" data-name="패스 7888" d="M11.518,232.883l1.507-7.389h-2.93v-2.586h3.451l1.283-6.3H10.095v-2.584h5.256l1.509-7.441h2.6l-1.509,7.441h5.464l1.509-7.441h2.619l-1.509,7.441h3v2.584H25.514l-1.3,6.3h4.822v2.586H23.694l-1.509,7.389h-2.6l1.493-7.389H15.629l-1.511,7.389Zm4.63-9.975h5.446l1.3-6.3H17.431Z" transform="translate(7.555 -176.854)" fill="#fff"/>
      <path id="패스_7889" data-name="패스 7889" d="M22.535,206.835h3.123v3.589H22.535Zm0,7.006h3.123v18.421H22.535Z" transform="translate(16.865 -176.669)" fill="#fff"/>
      <path id="패스_7890" data-name="패스 7890" d="M27.04,229.441V211.02h2.81v2.619a6.624,6.624,0,0,1,5.862-3.035,7.708,7.708,0,0,1,3.063.6,4.839,4.839,0,0,1,2.089,1.57,6.047,6.047,0,0,1,.97,2.308,17.859,17.859,0,0,1,.175,3.035v11.326H38.887V218.236a8.391,8.391,0,0,0-.365-2.852,2.992,2.992,0,0,0-1.292-1.511,4.1,4.1,0,0,0-2.177-.563,5.056,5.056,0,0,0-3.443,1.266q-1.448,1.267-1.448,4.8v10.06Z" transform="translate(20.237 -173.848)" fill="#fff"/>
      <path id="패스_7891" data-name="패스 7891" d="M39.945,232.448V216.456H37.188v-2.429h2.757v-1.96a8.562,8.562,0,0,1,.33-2.757,3.988,3.988,0,0,1,1.588-1.969,5.709,5.709,0,0,1,3.182-.755,15.287,15.287,0,0,1,2.913.313l-.467,2.722a10.508,10.508,0,0,0-1.839-.173,2.742,2.742,0,0,0-2.012.607,3.293,3.293,0,0,0-.589,2.273v1.7h3.591v2.429H43.05v15.993Z" transform="translate(27.831 -176.855)" fill="#fff"/>
      <rect id="사각형_16497" data-name="사각형 16497" width="3.123" height="25.427" transform="translate(76.833 30.166)" fill="#fff"/>
      <path id="패스_7892" data-name="패스 7892" d="M60.6,229.263v-2.707a6.744,6.744,0,0,1-5.847,3.123,7.455,7.455,0,0,1-3.044-.624,5,5,0,0,1-2.1-1.57,5.9,5.9,0,0,1-.963-2.315,15.827,15.827,0,0,1-.191-2.915V210.842h3.121V221.06a18.31,18.31,0,0,0,.191,3.294,3.263,3.263,0,0,0,1.25,1.935,3.879,3.879,0,0,0,2.36.7,5.15,5.15,0,0,0,2.635-.719,4.006,4.006,0,0,0,1.743-1.962,9.823,9.823,0,0,0,.512-3.6v-9.87h3.121v18.421Z" transform="translate(36.266 -173.67)" fill="#fff"/>
      <path id="패스_7893" data-name="패스 7893" d="M72.853,223.509l3.228.4a7.882,7.882,0,0,1-2.829,4.389,8.5,8.5,0,0,1-5.273,1.561,8.416,8.416,0,0,1-6.408-2.49,9.723,9.723,0,0,1-2.367-6.981q0-4.647,2.394-7.216a8.1,8.1,0,0,1,6.209-2.567,7.882,7.882,0,0,1,6.037,2.514q2.339,2.515,2.341,7.077c0,.185-.005.463-.018.832H62.429a7.073,7.073,0,0,0,1.717,4.649A5.113,5.113,0,0,0,68,227.291a4.778,4.778,0,0,0,2.932-.9,5.986,5.986,0,0,0,1.925-2.88M62.6,218.461H72.888a6.241,6.241,0,0,0-1.178-3.486,4.788,4.788,0,0,0-3.869-1.8,4.956,4.956,0,0,0-3.616,1.441,5.7,5.7,0,0,0-1.623,3.85" transform="translate(44.307 -173.848)" fill="#fff"/>
      <path id="패스_7894" data-name="패스 7894" d="M71.1,229.441V211.02h2.81v2.619a6.622,6.622,0,0,1,5.862-3.035,7.693,7.693,0,0,1,3.061.6,4.834,4.834,0,0,1,2.091,1.57,6.047,6.047,0,0,1,.97,2.308,17.911,17.911,0,0,1,.173,3.035v11.326H82.944V218.236a8.391,8.391,0,0,0-.365-2.852,2.992,2.992,0,0,0-1.292-1.511,4.106,4.106,0,0,0-2.177-.563,5.056,5.056,0,0,0-3.443,1.266q-1.45,1.267-1.448,4.8v10.06Z" transform="translate(53.209 -173.848)" fill="#fff"/>
      <path id="패스_7895" data-name="패스 7895" d="M94.826,222.694l3.07.4a7.96,7.96,0,0,1-2.575,4.969,7.5,7.5,0,0,1-5.091,1.8,7.9,7.9,0,0,1-6.079-2.472q-2.3-2.47-2.3-7.084a12.817,12.817,0,0,1,.99-5.221,6.887,6.887,0,0,1,3.009-3.357,8.92,8.92,0,0,1,4.4-1.119,7.645,7.645,0,0,1,4.909,1.518,6.966,6.966,0,0,1,2.444,4.31l-3.035.469a5.039,5.039,0,0,0-1.535-2.792,3.975,3.975,0,0,0-2.663-.937,4.845,4.845,0,0,0-3.832,1.692q-1.474,1.689-1.474,5.35,0,3.714,1.421,5.4a4.633,4.633,0,0,0,3.712,1.682,4.376,4.376,0,0,0,3.07-1.128,5.594,5.594,0,0,0,1.561-3.469" transform="translate(61.257 -173.848)" fill="#fff"/>
      <path id="패스_7896" data-name="패스 7896" d="M105.611,223.509l3.226.4a7.864,7.864,0,0,1-2.829,4.389,8.5,8.5,0,0,1-5.273,1.561,8.416,8.416,0,0,1-6.408-2.49,9.722,9.722,0,0,1-2.366-6.981q0-4.647,2.392-7.216a8.107,8.107,0,0,1,6.21-2.567,7.881,7.881,0,0,1,6.035,2.514q2.342,2.515,2.343,7.077c0,.185-.005.463-.019.832H95.185a7.082,7.082,0,0,0,1.717,4.649,5.114,5.114,0,0,0,3.852,1.614,4.773,4.773,0,0,0,2.93-.9,5.988,5.988,0,0,0,1.927-2.88M95.36,218.461h10.284a6.241,6.241,0,0,0-1.178-3.486,4.785,4.785,0,0,0-3.869-1.8,4.956,4.956,0,0,0-3.616,1.441,5.7,5.7,0,0,0-1.621,3.85" transform="translate(68.823 -173.848)" fill="#fff"/>
      <path id="패스_7897" data-name="패스 7897" d="M103.835,229.441V211.02h2.81v2.792a7.627,7.627,0,0,1,1.986-2.584,3.466,3.466,0,0,1,2-.624,6.08,6.08,0,0,1,3.208,1.007l-1.075,2.9a4.464,4.464,0,0,0-2.289-.677,2.972,2.972,0,0,0-1.839.617,3.341,3.341,0,0,0-1.163,1.708,12.182,12.182,0,0,0-.519,3.642v9.644Z" transform="translate(77.71 -173.848)" fill="#fff"/>
    </g>
  </g>
</svg>
