<svg id="그룹_29313" data-name="그룹 29313" xmlns="http://www.w3.org/2000/svg" xmlns:xlink="http://www.w3.org/1999/xlink" width="106.99" height="46.997" viewBox="0 0 106.99 46.997">
  <defs>
    <clipPath id="clip-path">
      <rect id="사각형_16378" data-name="사각형 16378" width="106.99" height="46.997" fill="#fef102"/>
    </clipPath>
  </defs>
  <rect id="사각형_16364" data-name="사각형 16364" width="7.918" height="36.973" fill="#fef102"/>
  <rect id="사각형_16365" data-name="사각형 16365" width="7.918" height="7.918" transform="translate(0 39.079)" fill="#fef102"/>
  <rect id="사각형_16366" data-name="사각형 16366" width="7.918" height="7.918" transform="translate(11.333 39.079)" fill="#fef102"/>
  <rect id="사각형_16367" data-name="사각형 16367" width="7.918" height="7.918" transform="translate(18.016 39.079)" fill="#fef102"/>
  <rect id="사각형_16368" data-name="사각형 16368" width="7.918" height="7.918" transform="translate(24.807 32.869)" fill="#fef102"/>
  <rect id="사각형_16369" data-name="사각형 16369" width="7.918" height="7.918" transform="translate(25 25.278)" fill="#fef102"/>
  <rect id="사각형_16370" data-name="사각형 16370" width="7.918" height="7.918" transform="translate(11.333 19.54)" fill="#fef102"/>
  <rect id="사각형_16371" data-name="사각형 16371" width="7.918" height="7.918" transform="translate(18.016 19.54)" fill="#fef102"/>
  <rect id="사각형_16372" data-name="사각형 16372" width="7.918" height="7.918" transform="translate(11.333 19.54)" fill="#fef102"/>
  <rect id="사각형_16373" data-name="사각형 16373" width="7.918" height="7.918" transform="translate(18.016 19.54)" fill="#fef102"/>
  <rect id="사각형_16374" data-name="사각형 16374" width="7.918" height="7.918" transform="translate(24.807 13.329)" fill="#fef102"/>
  <rect id="사각형_16375" data-name="사각형 16375" width="7.918" height="7.918" transform="translate(24.844 5.738)" fill="#fef102"/>
  <rect id="사각형_16376" data-name="사각형 16376" width="7.918" height="7.918" transform="translate(11.333)" fill="#fef102"/>
  <rect id="사각형_16377" data-name="사각형 16377" width="7.918" height="7.918" transform="translate(18.016)" fill="#fef102"/>
  <g id="그룹_29311" data-name="그룹 29311">
    <g id="그룹_29310" data-name="그룹 29310" clip-path="url(#clip-path)">
      <path id="패스_784" data-name="패스 784" d="M267.514,185.393q.826.2,1.7.469a6.474,6.474,0,0,1,1.574.714,4.024,4.024,0,0,1,1.161,1.105,2.81,2.81,0,0,1,.458,1.641,2.893,2.893,0,0,1-.513,1.752,3.986,3.986,0,0,1-1.295,1.139,5.7,5.7,0,0,1-1.73.614,9.971,9.971,0,0,1-1.842.179,6,6,0,0,1-3.092-.792,6.846,6.846,0,0,1-2.288-2.244l2.9-1.54a3.1,3.1,0,0,0,2.612,1.54,5.032,5.032,0,0,0,1.484-.156q.457-.156.458-.424,0-.223-.3-.391a4.293,4.293,0,0,0-.692-.3,6.328,6.328,0,0,0-.77-.212q-.38-.078-.536-.1a15.345,15.345,0,0,1-1.63-.413,5.976,5.976,0,0,1-1.5-.692,3.889,3.889,0,0,1-1.105-1.072,2.722,2.722,0,0,1-.435-1.574,3.346,3.346,0,0,1,.413-1.686,3.86,3.86,0,0,1,1.083-1.217,4.787,4.787,0,0,1,1.529-.737,6.349,6.349,0,0,1,1.752-.246,6.107,6.107,0,0,1,3,.759,6.927,6.927,0,0,1,2.311,2.076l-2.7,1.7a3.11,3.11,0,0,0-1.172-1.139,2.854,2.854,0,0,0-1.328-.357,2.757,2.757,0,0,0-1.161.2q-.424.2-.424.514c0,.089.067.175.2.257a3.488,3.488,0,0,0,.5.246,5.848,5.848,0,0,0,.67.223q.368.1.7.167" transform="translate(-223.814 -154.616)" fill="#fef102"/>
      <path id="패스_785" data-name="패스 785" d="M353.076,173.825a7.009,7.009,0,0,1-1.306.3,16.367,16.367,0,0,1-2.288.123,3.382,3.382,0,0,1-1.373-.279,3.477,3.477,0,0,1-1.105-.759,3.718,3.718,0,0,1-.748-1.116,3.376,3.376,0,0,1-.279-1.373l-.022-5.38h-2.322v-2.9h2.322v-3.617H349.3v3.617h2.768l-.647,2.9H349.3v4.688a1.22,1.22,0,0,0,.368.837,1.165,1.165,0,0,0,.859.346,3.077,3.077,0,0,0,1.261-.19q.39-.189.569-.279Z" transform="translate(-293.95 -135.86)" fill="#fef102"/>
      <path id="패스_786" data-name="패스 786" d="M427.633,195.2h-3.349V194.04a5.584,5.584,0,0,1-1.473,1.172,3.69,3.69,0,0,1-1.786.435,4.432,4.432,0,0,1-1.831-.38,4.589,4.589,0,0,1-1.473-1.038,5.06,5.06,0,0,1-.993-1.529,4.763,4.763,0,0,1-.368-1.875v-6.988h3.349v6.34a2.469,2.469,0,0,0,.179.949,2.511,2.511,0,0,0,.491.77,2.282,2.282,0,0,0,.725.525,2.144,2.144,0,0,0,1.764,0,2.423,2.423,0,0,0,.737-.525,2.366,2.366,0,0,0,.5-.792,2.65,2.65,0,0,0,.179-.971v-6.3h3.349Z" transform="translate(-356.161 -157.258)" fill="#fef102"/>
      <path id="패스_787" data-name="패스 787" d="M519.522,154.346v15.627h-3.349v-.9a6.712,6.712,0,0,1-1.585.978,4.417,4.417,0,0,1-1.786.371,5.982,5.982,0,0,1-2.389-.48,6.055,6.055,0,0,1-1.942-1.317,6.279,6.279,0,0,1-1.306-1.953,5.921,5.921,0,0,1-.48-2.366,6.108,6.108,0,0,1,1.8-4.353,6.293,6.293,0,0,1,1.953-1.306,5.927,5.927,0,0,1,2.367-.48,4.514,4.514,0,0,1,1.8.369,6.619,6.619,0,0,1,1.574.949v-5.135Zm-6.374,13.038a3.065,3.065,0,0,0,1.221-.245,3.056,3.056,0,0,0,1.647-1.635,3.1,3.1,0,0,0,0-2.425,3.055,3.055,0,0,0-1.647-1.635,3.166,3.166,0,0,0-2.442,0,3.055,3.055,0,0,0-1.647,1.635,3.106,3.106,0,0,0,0,2.425,3.056,3.056,0,0,0,1.647,1.635,3.068,3.068,0,0,0,1.221.245" transform="translate(-433.427 -132.03)" fill="#fef102"/>
      <path id="패스_788" data-name="패스 788" d="M612.421,148.17a1.9,1.9,0,0,1,1.4.58,2,2,0,0,1,0,2.813,1.975,1.975,0,0,1-2.8,0,2,2,0,0,1,0-2.813,1.9,1.9,0,0,1,1.4-.58m-1.663,5.157h3.349V164.69h-3.349Z" transform="translate(-522.185 -126.747)" fill="#fef102"/>
      <path id="패스_789" data-name="패스 789" d="M655.488,193.005a6.914,6.914,0,0,1-2.585-.48,6.591,6.591,0,0,1-2.1-1.317,6.21,6.21,0,0,1-1.4-1.953,5.742,5.742,0,0,1,.011-4.766,6.111,6.111,0,0,1,1.426-1.953,6.878,6.878,0,0,1,2.1-1.306,6.871,6.871,0,0,1,7.21,1.339,6.209,6.209,0,0,1,1.4,1.953,5.712,5.712,0,0,1-.011,4.755,6.221,6.221,0,0,1-1.415,1.942,6.7,6.7,0,0,1-2.095,1.306,6.8,6.8,0,0,1-2.541.48m.011-9.22a3.193,3.193,0,0,0-1.328.267,3.075,3.075,0,0,0-1,.712,3.4,3.4,0,0,0-.648,1,2.845,2.845,0,0,0-.234,1.112,3.071,3.071,0,0,0,1.853,2.825,3.33,3.33,0,0,0,1.362.267,3.255,3.255,0,0,0,1.351-.267,3.085,3.085,0,0,0,1-.712,3.266,3.266,0,0,0,.636-.99,2.941,2.941,0,0,0,.223-1.124,2.845,2.845,0,0,0-.234-1.112,3.4,3.4,0,0,0-.647-1,3.087,3.087,0,0,0-1-.712,3.194,3.194,0,0,0-1.328-.267" transform="translate(-555.072 -154.616)" fill="#fef102"/>
      <path id="패스_790" data-name="패스 790" d="M545.068,293.6a1.592,1.592,0,0,1-.643.5,2.142,2.142,0,0,1-.89.184,1.621,1.621,0,0,1-.648-.133,1.7,1.7,0,0,1-.539-.365,1.8,1.8,0,0,1-.368-.541,1.587,1.587,0,0,1-.138-.655,1.688,1.688,0,0,1,.132-.664,1.669,1.669,0,0,1,.362-.541,1.725,1.725,0,0,1,.539-.362,1.65,1.65,0,0,1,.661-.133,2.108,2.108,0,0,1,.887.182,1.629,1.629,0,0,1,.634.491l-.736.507a.736.736,0,0,0-.3-.247,1.127,1.127,0,0,0-.485-.093.675.675,0,0,0-.3.068.794.794,0,0,0-.244.185.846.846,0,0,0-.164.274.93.93,0,0,0-.059.329.85.85,0,0,0,.062.32.916.916,0,0,0,.17.274.848.848,0,0,0,.247.191.627.627,0,0,0,.287.071,1.139,1.139,0,0,0,.47-.086.71.71,0,0,0,.29-.223Z" transform="translate(-463.501 -248.836)" fill="#fef102"/>
      <path id="패스_791" data-name="패스 791" d="M567.566,294.287a1.915,1.915,0,0,1-.716-.133,1.825,1.825,0,0,1-.58-.365,1.715,1.715,0,0,1-.389-.541,1.591,1.591,0,0,1,0-1.32,1.694,1.694,0,0,1,.4-.541,1.9,1.9,0,0,1,.58-.362,1.9,1.9,0,0,1,2,.371,1.72,1.72,0,0,1,.389.541,1.582,1.582,0,0,1,0,1.317,1.722,1.722,0,0,1-.392.538,1.854,1.854,0,0,1-.58.362,1.882,1.882,0,0,1-.7.133m0-2.553a.884.884,0,0,0-.368.074.852.852,0,0,0-.278.2.938.938,0,0,0-.179.277.786.786,0,0,0-.065.308.85.85,0,0,0,.513.782.922.922,0,0,0,.377.074.9.9,0,0,0,.374-.074.855.855,0,0,0,.278-.2.9.9,0,0,0,.176-.274.816.816,0,0,0,.062-.311.786.786,0,0,0-.065-.308.942.942,0,0,0-.179-.277.854.854,0,0,0-.278-.2.884.884,0,0,0-.368-.074" transform="translate(-483.944 -248.836)" fill="#fef102"/>
      <path id="패스_792" data-name="패스 792" d="M598.753,290.893a1.12,1.12,0,0,1,.479.105,1.233,1.233,0,0,1,.393.287,1.371,1.371,0,0,1,.263.423,1.4,1.4,0,0,1,.1.519v1.935h-.927v-1.756a.733.733,0,0,0-.046-.26.742.742,0,0,0-.124-.216.565.565,0,0,0-.182-.145.492.492,0,0,0-.223-.053.47.47,0,0,0-.223.056.6.6,0,0,0-.182.148.74.74,0,0,0-.124.216.752.752,0,0,0-.046.266v1.743h-.927v-1.756a.729.729,0,0,0-.047-.26.742.742,0,0,0-.124-.216.566.566,0,0,0-.183-.145.5.5,0,0,0-.224-.053.474.474,0,0,0-.224.056.608.608,0,0,0-.183.148.75.75,0,0,0-.171.482v1.743H594.9v-3.146h.927l.006.34a1.44,1.44,0,0,1,.355-.337.816.816,0,0,1,.454-.127,1.214,1.214,0,0,1,.578.13,1.139,1.139,0,0,1,.4.346,1.462,1.462,0,0,1,.451-.34,1.531,1.531,0,0,1,.686-.136" transform="translate(-508.884 -248.835)" fill="#fef102"/>
      <path id="패스_793" data-name="패스 793" d="M636.257,290.893a1.634,1.634,0,0,1,.654.133,1.742,1.742,0,0,1,.54.362,1.693,1.693,0,0,1,.5,1.205,1.646,1.646,0,0,1-.133.655,1.746,1.746,0,0,1-.361.541,1.674,1.674,0,0,1-.537.365,1.648,1.648,0,0,1-.66.133,1.217,1.217,0,0,1-.493-.1,1.844,1.844,0,0,1-.438-.271v1.8H634.4v-4.691h.927v.241a1.819,1.819,0,0,1,.435-.263,1.246,1.246,0,0,1,.5-.1m-.1,2.553a.845.845,0,0,0,.337-.068.845.845,0,0,0,.454-.453.863.863,0,0,0,0-.671.844.844,0,0,0-.454-.453.871.871,0,0,0-.674,0,.843.843,0,0,0-.454.453.86.86,0,0,0,0,.671.854.854,0,0,0,.182.271.866.866,0,0,0,.272.182.845.845,0,0,0,.337.068" transform="translate(-542.676 -248.835)" fill="#fef102"/>
      <path id="패스_794" data-name="패스 794" d="M665.27,291.017v3.146h-.927v-.25a1.744,1.744,0,0,1-.433.271,1.222,1.222,0,0,1-.495.1,1.691,1.691,0,0,1-1.205-.5,1.745,1.745,0,0,1-.362-.541,1.686,1.686,0,0,1,0-1.32,1.708,1.708,0,0,1,.368-.541,1.743,1.743,0,0,1,.541-.362,1.64,1.64,0,0,1,.655-.133,1.23,1.23,0,0,1,.495.1,1.856,1.856,0,0,1,.433.263v-.241Zm-1.756,2.429a.83.83,0,0,0,.331-.068.907.907,0,0,0,.275-.182.85.85,0,0,0,0-1.213.9.9,0,0,0-.275-.182.828.828,0,0,0-.331-.068.843.843,0,0,0-.337.068.844.844,0,0,0-.454.453.861.861,0,0,0,0,.671.856.856,0,0,0,.182.271.867.867,0,0,0,.272.182.845.845,0,0,0,.337.068" transform="translate(-566.043 -248.835)" fill="#fef102"/>
      <path id="패스_795" data-name="패스 795" d="M693.057,290.893a1.284,1.284,0,0,1,.519.105,1.362,1.362,0,0,1,.711.711,1.287,1.287,0,0,1,.1.519v1.935h-.927v-1.756a.628.628,0,0,0-.056-.26.726.726,0,0,0-.148-.216.679.679,0,0,0-.216-.145.659.659,0,0,0-.26-.053.641.641,0,0,0-.266.056.715.715,0,0,0-.365.365.642.642,0,0,0-.056.266v1.743h-.927v-3.146h.927v.359a1.644,1.644,0,0,1,.43-.349,1.066,1.066,0,0,1,.528-.133" transform="translate(-591.24 -248.835)" fill="#fef102"/>
      <path id="패스_796" data-name="패스 796" d="M717.141,295.494a2.445,2.445,0,0,1-.318.544,1.366,1.366,0,0,1-.365.325,1.316,1.316,0,0,1-.417.158,2.461,2.461,0,0,1-.47.043,1.71,1.71,0,0,1-.544-.087l.192-.847a.674.674,0,0,0,.176.071.747.747,0,0,0,.176.022v.006a1.276,1.276,0,0,0,.223-.018.592.592,0,0,0,.371-.223,1.193,1.193,0,0,0,.155-.266l.13-.328h-.186l-1.236-3.146H716l.816,2.151.822-2.151h.977Z" transform="translate(-611.646 -249.566)" fill="#fef102"/>
    </g>
  </g>
</svg>
