<svg xmlns="http://www.w3.org/2000/svg" xmlns:xlink="http://www.w3.org/1999/xlink" width="161" height="71" viewBox="0 0 161 71">
  <defs>
    <clipPath id="clip-path">
      <rect id="사각형_16345" data-name="사각형 16345" width="161" height="71" fill="#191919"/>
    </clipPath>
  </defs>
  <g id="그룹_29337" data-name="그룹 29337" transform="translate(9317 10176)">
    <g id="logo" transform="translate(-9317 -10176)">
      <path id="B" d="M27.093,70.764H17.042v-11.9H37.358V49.4h0V41.269H17.042v-11.9H37.358V20.034h0V11.9H17.042V0H39V8.625H49.267v11.9h0V31.934H39v6.059H49.267v11.9h0V61.3H39v9.461ZM0,70.637v-11.9H11.906v11.9ZM0,55.57V0H11.906V55.57Z" transform="translate(0 0)" fill="#191919"/>
      <g id="그룹_29309" data-name="그룹 29309">
        <g id="그룹_29308" data-name="그룹 29308" clip-path="url(#clip-path)">
          <path id="패스_771" data-name="패스 771" d="M270.473,187.728q1.242.3,2.552.7a9.74,9.74,0,0,1,2.367,1.074,6.052,6.052,0,0,1,1.746,1.661,4.222,4.222,0,0,1,.688,2.466,4.346,4.346,0,0,1-.772,2.634,5.993,5.993,0,0,1-1.947,1.711,8.574,8.574,0,0,1-2.6.923,15,15,0,0,1-2.77.268,9.024,9.024,0,0,1-4.65-1.191,10.292,10.292,0,0,1-3.441-3.372l4.364-2.315a4.665,4.665,0,0,0,3.928,2.315,7.573,7.573,0,0,0,2.232-.235q.688-.234.688-.638,0-.335-.453-.587a6.46,6.46,0,0,0-1.041-.453,9.53,9.53,0,0,0-1.158-.319q-.571-.117-.806-.151a23.086,23.086,0,0,1-2.451-.621,8.991,8.991,0,0,1-2.249-1.04,5.846,5.846,0,0,1-1.662-1.61,4.089,4.089,0,0,1-.655-2.365,5.027,5.027,0,0,1,.621-2.533,5.8,5.8,0,0,1,1.628-1.829,7.2,7.2,0,0,1,2.3-1.107,9.552,9.552,0,0,1,2.635-.369,9.188,9.188,0,0,1,4.516,1.141,10.414,10.414,0,0,1,3.475,3.121l-4.062,2.55a4.676,4.676,0,0,0-1.763-1.711,4.294,4.294,0,0,0-2-.537,4.148,4.148,0,0,0-1.746.3q-.638.3-.638.772c0,.134.1.263.3.386a5.246,5.246,0,0,0,.755.369,8.806,8.806,0,0,0,1.007.336q.554.151,1.058.252" transform="translate(-204.754 -141.47)" fill="#191919"/>
          <path id="패스_772" data-name="패스 772" d="M357.834,181.372a10.548,10.548,0,0,1-1.964.453,24.626,24.626,0,0,1-3.441.185,5.089,5.089,0,0,1-2.065-.419,5.229,5.229,0,0,1-1.662-1.141,5.59,5.59,0,0,1-1.125-1.678,5.072,5.072,0,0,1-.42-2.063l-.033-8.087h-3.492v-4.362h3.492v-5.436h5.036v5.436h4.163l-.974,4.362h-3.189v7.047a1.834,1.834,0,0,0,.554,1.258,1.753,1.753,0,0,0,1.292.52,4.629,4.629,0,0,0,1.9-.285q.587-.285.856-.419Z" transform="translate(-268.917 -124.309)" fill="#191919"/>
          <path id="패스_773" data-name="패스 773" d="M433.313,200.917h-5.036v-1.745a8.4,8.4,0,0,1-2.216,1.762,5.551,5.551,0,0,1-2.686.654,6.668,6.668,0,0,1-2.753-.57,6.9,6.9,0,0,1-2.216-1.56,7.6,7.6,0,0,1-1.494-2.3,7.156,7.156,0,0,1-.554-2.819v-10.5h5.036v9.53a3.709,3.709,0,0,0,.269,1.426,3.777,3.777,0,0,0,.739,1.157,3.433,3.433,0,0,0,1.091.789,3.226,3.226,0,0,0,2.652,0,3.644,3.644,0,0,0,1.108-.789,3.557,3.557,0,0,0,.755-1.191,3.982,3.982,0,0,0,.268-1.46v-9.462h5.036Z" transform="translate(-325.83 -143.888)" fill="#191919"/>
          <path id="패스_774" data-name="패스 774" d="M525.99,154.346v23.488h-5.036v-1.357a10.1,10.1,0,0,1-2.383,1.471,6.646,6.646,0,0,1-2.686.557,9,9,0,0,1-3.592-.722,9.106,9.106,0,0,1-2.921-1.979,9.438,9.438,0,0,1-1.964-2.936,8.9,8.9,0,0,1-.722-3.557,9.177,9.177,0,0,1,2.7-6.543,9.464,9.464,0,0,1,2.938-1.963,8.918,8.918,0,0,1,3.559-.722,6.792,6.792,0,0,1,2.7.554,9.956,9.956,0,0,1,2.367,1.426v-7.718Zm-9.585,19.6a4.611,4.611,0,0,0,1.836-.367,4.714,4.714,0,0,0,1.482-.986,4.666,4.666,0,0,0,.994-1.471,4.661,4.661,0,0,0,0-3.644,4.67,4.67,0,0,0-.994-1.471,4.718,4.718,0,0,0-1.482-.986,4.764,4.764,0,0,0-3.673,0,4.716,4.716,0,0,0-1.482.986,4.669,4.669,0,0,0-.994,1.471,4.666,4.666,0,0,0,0,3.644,4.665,4.665,0,0,0,.994,1.471,4.712,4.712,0,0,0,1.482.986,4.616,4.616,0,0,0,1.837.367" transform="translate(-396.517 -120.805)" fill="#191919"/>
          <path id="패스_775" data-name="패스 775" d="M613.416,148.17a2.857,2.857,0,0,1,2.1.872,3.008,3.008,0,0,1,0,4.228,2.972,2.972,0,0,1-4.206,0,2.986,2.986,0,0,1,2.1-5.1m-2.5,7.751h5.036V173h-5.036Z" transform="translate(-477.716 -115.971)" fill="#191919"/>
          <path id="패스_776" data-name="패스 776" d="M658.812,199.171a10.4,10.4,0,0,1-3.888-.722,9.913,9.913,0,0,1-3.151-1.979,9.334,9.334,0,0,1-2.112-2.936,8.625,8.625,0,0,1,.017-7.164,9.188,9.188,0,0,1,2.145-2.936,10.345,10.345,0,0,1,3.151-1.963,10.336,10.336,0,0,1,10.843,2.013,9.331,9.331,0,0,1,2.111,2.936,8.58,8.58,0,0,1-.017,7.147,9.349,9.349,0,0,1-2.128,2.919,10.07,10.07,0,0,1-3.15,1.963,10.224,10.224,0,0,1-3.82.722m.017-13.858a4.8,4.8,0,0,0-2,.4,4.628,4.628,0,0,0-1.511,1.07,5.1,5.1,0,0,0-.974,1.5,4.272,4.272,0,0,0-.353,1.671,4.615,4.615,0,0,0,2.786,4.246,5.011,5.011,0,0,0,2.048.4,4.9,4.9,0,0,0,2.031-.4,4.638,4.638,0,0,0,1.511-1.07,4.909,4.909,0,0,0,.957-1.488,4.418,4.418,0,0,0,.336-1.689,4.274,4.274,0,0,0-.353-1.671,5.114,5.114,0,0,0-.974-1.5,4.643,4.643,0,0,0-1.511-1.07,4.806,4.806,0,0,0-2-.4" transform="translate(-507.803 -141.47)" fill="#191919"/>
          <path id="패스_777" data-name="패스 777" d="M546.694,294.965a2.394,2.394,0,0,1-.967.753,3.223,3.223,0,0,1-1.339.276,2.439,2.439,0,0,1-.975-.2,2.552,2.552,0,0,1-.81-.548,2.712,2.712,0,0,1-.554-.813,2.385,2.385,0,0,1-.208-.985,2.534,2.534,0,0,1,.2-1,2.508,2.508,0,0,1,.545-.813,2.6,2.6,0,0,1,.81-.543,2.484,2.484,0,0,1,.994-.2,3.172,3.172,0,0,1,1.334.274,2.449,2.449,0,0,1,.953.739l-1.106.762a1.1,1.1,0,0,0-.451-.372,1.7,1.7,0,0,0-.73-.139,1.014,1.014,0,0,0-.451.1,1.192,1.192,0,0,0-.367.278,1.274,1.274,0,0,0-.246.412,1.4,1.4,0,0,0-.089.5,1.278,1.278,0,0,0,.093.481,1.373,1.373,0,0,0,.256.412,1.275,1.275,0,0,0,.372.287.943.943,0,0,0,.432.106,1.714,1.714,0,0,0,.706-.13,1.069,1.069,0,0,0,.437-.334Z" transform="translate(-424.029 -227.68)" fill="#191919"/>
          <path id="패스_778" data-name="패스 778" d="M568.487,295.994a2.882,2.882,0,0,1-1.077-.2,2.745,2.745,0,0,1-.872-.548,2.581,2.581,0,0,1-.584-.813,2.389,2.389,0,0,1,0-1.983,2.544,2.544,0,0,1,.594-.813,2.863,2.863,0,0,1,.872-.543,2.862,2.862,0,0,1,3,.557,2.585,2.585,0,0,1,.585.813,2.376,2.376,0,0,1,0,1.979,2.59,2.59,0,0,1-.589.808,2.788,2.788,0,0,1-.872.544,2.831,2.831,0,0,1-1.058.2m0-3.837a1.331,1.331,0,0,0-.553.111,1.282,1.282,0,0,0-.418.3,1.412,1.412,0,0,0-.27.417,1.181,1.181,0,0,0-.1.463,1.278,1.278,0,0,0,.771,1.176,1.386,1.386,0,0,0,.567.111,1.355,1.355,0,0,0,.563-.111,1.285,1.285,0,0,0,.418-.3,1.361,1.361,0,0,0,.265-.412,1.226,1.226,0,0,0,.093-.468,1.18,1.18,0,0,0-.1-.463,1.413,1.413,0,0,0-.269-.417,1.286,1.286,0,0,0-.418-.3,1.331,1.331,0,0,0-.553-.111" transform="translate(-442.731 -227.68)" fill="#191919"/>
          <path id="패스_779" data-name="패스 779" d="M600.7,290.893a1.685,1.685,0,0,1,.72.158,1.855,1.855,0,0,1,.59.432,2.058,2.058,0,0,1,.4.636,2.1,2.1,0,0,1,.144.78v2.908h-1.394v-2.639a1.1,1.1,0,0,0-.07-.39,1.118,1.118,0,0,0-.186-.325.85.85,0,0,0-.274-.218.741.741,0,0,0-.335-.079.706.706,0,0,0-.335.084.907.907,0,0,0-.274.223,1.107,1.107,0,0,0-.186.325,1.128,1.128,0,0,0-.07.4v2.62h-1.394v-2.639a1.1,1.1,0,0,0-.07-.39,1.117,1.117,0,0,0-.187-.325.852.852,0,0,0-.276-.218.747.747,0,0,0-.336-.079.714.714,0,0,0-.337.084.914.914,0,0,0-.276.223,1.127,1.127,0,0,0-.257.725v2.62H594.9v-4.729h1.394l.009.511a2.163,2.163,0,0,1,.534-.506,1.227,1.227,0,0,1,.683-.19,1.826,1.826,0,0,1,.869.2,1.712,1.712,0,0,1,.6.52,2.2,2.2,0,0,1,.679-.511,2.3,2.3,0,0,1,1.032-.2" transform="translate(-465.548 -227.679)" fill="#191919"/>
          <path id="패스_780" data-name="패스 780" d="M637.194,290.893a2.458,2.458,0,0,1,.983.2,2.617,2.617,0,0,1,.811.543,2.543,2.543,0,0,1,.746,1.812,2.471,2.471,0,0,1-.2.985,2.626,2.626,0,0,1-.542.813,2.519,2.519,0,0,1-.807.548,2.48,2.48,0,0,1-.992.2,1.832,1.832,0,0,1-.742-.154,2.773,2.773,0,0,1-.658-.407v2.7H634.4v-7.051h1.394v.362a2.738,2.738,0,0,1,.654-.395,1.875,1.875,0,0,1,.747-.153m-.145,3.837a1.271,1.271,0,0,0,.507-.1,1.27,1.27,0,0,0,.683-.68,1.295,1.295,0,0,0,0-1.009,1.269,1.269,0,0,0-.683-.68,1.31,1.31,0,0,0-1.013,0,1.268,1.268,0,0,0-.683.68,1.294,1.294,0,0,0,0,1.009,1.288,1.288,0,0,0,.274.407,1.3,1.3,0,0,0,.409.273,1.271,1.271,0,0,0,.507.1" transform="translate(-496.462 -227.679)" fill="#191919"/>
          <path id="패스_781" data-name="패스 781" d="M667.061,291.079v4.729h-1.394v-.376a2.619,2.619,0,0,1-.651.407,1.839,1.839,0,0,1-.744.154,2.544,2.544,0,0,1-1.813-.748,2.622,2.622,0,0,1-.544-.813,2.534,2.534,0,0,1,0-1.984,2.571,2.571,0,0,1,.553-.813,2.621,2.621,0,0,1,.813-.543,2.468,2.468,0,0,1,.985-.2,1.849,1.849,0,0,1,.744.153,2.79,2.79,0,0,1,.651.395v-.362Zm-2.64,3.651a1.248,1.248,0,0,0,.5-.1,1.363,1.363,0,0,0,.414-.273,1.278,1.278,0,0,0,0-1.824,1.358,1.358,0,0,0-.414-.273,1.244,1.244,0,0,0-.5-.1,1.267,1.267,0,0,0-.507.1,1.268,1.268,0,0,0-.683.68,1.294,1.294,0,0,0,0,1.009,1.287,1.287,0,0,0,.274.407,1.3,1.3,0,0,0,.409.273,1.271,1.271,0,0,0,.507.1" transform="translate(-517.839 -227.679)" fill="#191919"/>
          <path id="패스_782" data-name="패스 782" d="M694.007,290.893a1.931,1.931,0,0,1,.781.158,2.047,2.047,0,0,1,1.069,1.068,1.932,1.932,0,0,1,.158.78v2.908h-1.394v-2.639a.942.942,0,0,0-.084-.39,1.091,1.091,0,0,0-.223-.325,1.024,1.024,0,0,0-.325-.218.991.991,0,0,0-.391-.079.964.964,0,0,0-.4.084,1.076,1.076,0,0,0-.549.548.964.964,0,0,0-.084.4v2.62h-1.394v-4.729h1.394v.539a2.473,2.473,0,0,1,.646-.525,1.6,1.6,0,0,1,.795-.2" transform="translate(-540.891 -227.679)" fill="#191919"/>
          <path id="패스_783" data-name="패스 783" d="M718.206,297.378a3.677,3.677,0,0,1-.479.818,2.052,2.052,0,0,1-.548.488,1.979,1.979,0,0,1-.628.237,3.707,3.707,0,0,1-.706.065,2.57,2.57,0,0,1-.818-.13l.288-1.273a1.013,1.013,0,0,0,.265.107,1.124,1.124,0,0,0,.265.033v.009a1.917,1.917,0,0,0,.335-.028.889.889,0,0,0,.558-.334,1.8,1.8,0,0,0,.232-.4l.2-.492h-.279l-1.859-4.729H716.5l1.227,3.233,1.236-3.233h1.469Z" transform="translate(-559.559 -228.348)" fill="#191919"/>
        </g>
      </g>
    </g>
  </g>
</svg>
