<svg xmlns="http://www.w3.org/2000/svg" xmlns:xlink="http://www.w3.org/1999/xlink" width="1730.47" height="760.358" viewBox="0 0 1730.47 760.358">
  <defs>
    <clipPath id="clip-path">
      <rect id="사각형_16378" data-name="사각형 16378" width="1730.47" height="760.358" fill="#161616"/>
    </clipPath>
  </defs>
  <g id="그룹_29525" data-name="그룹 29525" transform="translate(-0.402 0)">
    <path id="합치기_5" data-name="합치기 5" d="M157.947,412.641H99.359V343.124H219.18V241.081H99.359V171.563H217.494V117.031h.316V69.519H99.359V0h128V50.384h59.863V119.9h-.318v66.644H227.365v35.4H288.6V358.11H227.363v54.53ZM0,412.641V343.124H69.416v69.517Zm0-88.013V0H69.416V324.628Z" transform="translate(266.696 269.03)" fill="#161616" stroke="rgba(0,0,0,0)" stroke-miterlimit="10" stroke-width="1"/>
    <g id="그룹_29311" data-name="그룹 29311" transform="translate(0.402 0)">
      <g id="그룹_29310" data-name="그룹 29310" clip-path="url(#clip-path)">
        <path id="패스_784" data-name="패스 784" d="M356.632,255.873q13.357,3.253,27.449,7.586a104.737,104.737,0,0,1,25.463,11.557,65.11,65.11,0,0,1,18.781,17.878q7.4,10.659,7.4,26.546,0,16.978-8.306,28.352a64.488,64.488,0,0,1-20.949,18.42,92.221,92.221,0,0,1-27.992,9.932,161.316,161.316,0,0,1-29.8,2.889q-28.17,0-50.024-12.821t-37.018-36.3L308.6,304.994a50.18,50.18,0,0,0,42.258,24.921q16.606,0,24.015-2.529t7.406-6.863q0-3.606-4.877-6.32a69.427,69.427,0,0,0-11.195-4.875,102.372,102.372,0,0,0-12.461-3.432q-6.147-1.263-8.669-1.625a248.2,248.2,0,0,1-26.366-6.683,96.677,96.677,0,0,1-24.2-11.2,62.912,62.912,0,0,1-17.878-17.335q-7.045-10.295-7.043-25.461,0-15.529,6.68-27.27a62.45,62.45,0,0,1,17.518-19.683,77.44,77.44,0,0,1,24.741-11.92,102.712,102.712,0,0,1,28.352-3.974,98.8,98.8,0,0,1,48.578,12.28,112.069,112.069,0,0,1,37.381,33.589l-43.7,27.449q-7.951-12.638-18.964-18.42t-21.489-5.778q-11.919,0-18.78,3.249t-6.863,8.308c0,1.443,1.082,2.832,3.251,4.152a56.417,56.417,0,0,0,8.126,3.974,94.633,94.633,0,0,0,10.835,3.611q5.958,1.625,11.377,2.709" transform="translate(349.906 242.04)" fill="#161616"/>
        <path id="패스_785" data-name="패스 785" d="M496.411,401.532a113.4,113.4,0,0,1-21.129,4.877q-13.19,1.979-37.021,1.986a54.723,54.723,0,0,1-22.212-4.514,56.262,56.262,0,0,1-17.877-12.28,60.153,60.153,0,0,1-12.1-18.06,54.61,54.61,0,0,1-4.515-22.21l-.36-87.045H343.633V217.333H381.2v-58.51h54.176v58.51h44.786l-10.474,46.953H435.372v75.848a19.741,19.741,0,0,0,5.96,13.543,18.855,18.855,0,0,0,13.9,5.6q14.087,0,20.408-3.071t9.209-4.515Z" transform="translate(459.699 212.679)" fill="#161616"/>
        <path id="패스_786" data-name="패스 786" d="M598.752,367.677H544.577V348.894a90.348,90.348,0,0,1-23.838,18.963,59.7,59.7,0,0,1-28.9,7.043,71.7,71.7,0,0,1-29.614-6.14,74.242,74.242,0,0,1-23.838-16.795,81.862,81.862,0,0,1-16.071-24.74,77.056,77.056,0,0,1-5.96-30.339V183.838h54.176V286.412a39.947,39.947,0,0,0,2.891,15.352,40.621,40.621,0,0,0,7.946,12.458,36.924,36.924,0,0,0,11.736,8.489,34.692,34.692,0,0,0,28.532,0,39.2,39.2,0,0,0,11.92-8.489,38.273,38.273,0,0,0,8.126-12.821,42.862,42.862,0,0,0,2.889-15.712V183.838h54.176Z" transform="translate(557.085 246.176)" fill="#161616"/>
        <path id="패스_787" data-name="패스 787" d="M714.361,154.346V407.17H660.183V392.564a108.588,108.588,0,0,1-25.641,15.829,71.459,71.459,0,0,1-28.894,6A96.784,96.784,0,0,1,567,406.625a97.957,97.957,0,0,1-31.421-21.307,101.591,101.591,0,0,1-21.128-31.6,95.786,95.786,0,0,1-7.767-38.284A98.818,98.818,0,0,1,535.76,245a101.816,101.816,0,0,1,31.6-21.127,95.89,95.89,0,0,1,38.287-7.768,73.037,73.037,0,0,1,29.072,5.962,107.079,107.079,0,0,1,25.463,15.349V154.346ZM611.245,365.272A49.582,49.582,0,0,0,631,361.316a49.446,49.446,0,0,0,26.642-26.451,50.21,50.21,0,0,0,0-39.227A49.43,49.43,0,0,0,631,269.189a51.223,51.223,0,0,0-39.51,0,49.434,49.434,0,0,0-26.641,26.451,50.25,50.25,0,0,0,0,39.227,49.451,49.451,0,0,0,26.641,26.451,49.626,49.626,0,0,0,19.758,3.956" transform="translate(678.041 206.684)" fill="#161616"/>
        <path id="패스_788" data-name="패스 788" d="M642.409,148.17a30.729,30.729,0,0,1,22.625,9.389,32.387,32.387,0,0,1,0,45.509,31.956,31.956,0,0,1-45.251,0,32.395,32.395,0,0,1,0-45.509,30.739,30.739,0,0,1,22.626-9.389M615.5,231.6h54.175V415.438H615.5Z" transform="translate(816.985 198.413)" fill="#161616"/>
        <path id="패스_789" data-name="패스 789" d="M755.618,379.036a111.859,111.859,0,0,1-41.826-7.768,106.632,106.632,0,0,1-33.9-21.306,100.478,100.478,0,0,1-22.715-31.6,92.889,92.889,0,0,1,.183-77.113,98.879,98.879,0,0,1,23.075-31.6,111.287,111.287,0,0,1,33.894-21.126,111.153,111.153,0,0,1,116.643,21.669,100.451,100.451,0,0,1,22.714,31.6,92.41,92.41,0,0,1-.181,76.928,100.645,100.645,0,0,1-22.894,31.423,108.33,108.33,0,0,1-33.893,21.126,109.936,109.936,0,0,1-41.1,7.768M755.8,229.87a51.663,51.663,0,0,0-21.489,4.318A49.75,49.75,0,0,0,718.059,245.7a54.941,54.941,0,0,0-10.477,16.2,46.024,46.024,0,0,0-3.793,17.99A49.675,49.675,0,0,0,733.767,325.6a53.88,53.88,0,0,0,22.032,4.318A52.653,52.653,0,0,0,777.65,325.6,49.906,49.906,0,0,0,793.9,314.084,52.848,52.848,0,0,0,804.2,298.068a47.588,47.588,0,0,0,3.612-18.177,46.025,46.025,0,0,0-3.794-17.99,55.055,55.055,0,0,0-10.475-16.2,49.945,49.945,0,0,0-16.252-11.515,51.675,51.675,0,0,0-21.49-4.318" transform="translate(868.468 242.04)" fill="#161616"/>
        <path id="패스_790" data-name="패스 790" d="M594.041,334.713a25.756,25.756,0,0,1-10.4,8.109,34.662,34.662,0,0,1-14.4,2.971,26.228,26.228,0,0,1-10.491-2.15,27.418,27.418,0,0,1-8.715-5.9,29.185,29.185,0,0,1-5.96-8.749,25.678,25.678,0,0,1-2.233-10.6,27.313,27.313,0,0,1,2.135-10.748,27.005,27.005,0,0,1,5.861-8.75,27.905,27.905,0,0,1,8.716-5.85,26.689,26.689,0,0,1,10.688-2.15,34.1,34.1,0,0,1,14.351,2.949,26.352,26.352,0,0,1,10.251,7.951l-11.9,8.2a11.9,11.9,0,0,0-4.849-4,18.238,18.238,0,0,0-7.851-1.5,10.917,10.917,0,0,0-4.851,1.1,12.845,12.845,0,0,0-3.95,2.99,13.7,13.7,0,0,0-2.648,4.433,15.036,15.036,0,0,0-.951,5.33,13.741,13.741,0,0,0,1,5.181,14.821,14.821,0,0,0,2.751,4.436,13.712,13.712,0,0,0,4,3.09,10.138,10.138,0,0,0,4.649,1.143,18.432,18.432,0,0,0,7.6-1.4,11.492,11.492,0,0,0,4.7-3.6Z" transform="translate(725.119 389.535)" fill="#161616"/>
        <path id="패스_791" data-name="패스 791" d="M595.289,345.793a30.984,30.984,0,0,1-11.583-2.15,29.526,29.526,0,0,1-9.385-5.9,27.746,27.746,0,0,1-6.286-8.749,25.738,25.738,0,0,1,.047-21.349,27.4,27.4,0,0,1,6.392-8.75,30.776,30.776,0,0,1,9.384-5.85,30.768,30.768,0,0,1,32.294,6,27.833,27.833,0,0,1,6.29,8.751,25.589,25.589,0,0,1-.051,21.3,27.86,27.86,0,0,1-6.338,8.7,29.976,29.976,0,0,1-9.384,5.85,30.437,30.437,0,0,1-11.38,2.15m.049-41.3a14.307,14.307,0,0,0-5.951,1.195,13.781,13.781,0,0,0-4.5,3.188,15.2,15.2,0,0,0-2.9,4.483,12.718,12.718,0,0,0-1.05,4.983,13.753,13.753,0,0,0,8.3,12.655,14.91,14.91,0,0,0,6.1,1.195,14.555,14.555,0,0,0,6.05-1.195,13.846,13.846,0,0,0,4.5-3.188,14.618,14.618,0,0,0,2.851-4.433,13.211,13.211,0,0,0,1-5.034,12.718,12.718,0,0,0-1.05-4.983,15.257,15.257,0,0,0-2.9-4.483,13.815,13.815,0,0,0-4.5-3.188,14.31,14.31,0,0,0-5.95-1.195" transform="translate(757.121 389.535)" fill="#161616"/>
        <path id="패스_792" data-name="패스 792" d="M657.3,290.893a18.119,18.119,0,0,1,7.748,1.7,19.947,19.947,0,0,1,6.351,4.651,22.182,22.182,0,0,1,4.25,6.848,22.572,22.572,0,0,1,1.55,8.4v31.3h-15v-28.4a11.855,11.855,0,0,0-.752-4.2,12.016,12.016,0,0,0-2-3.5,9.142,9.142,0,0,0-2.949-2.348,7.965,7.965,0,0,0-3.6-.852,7.607,7.607,0,0,0-3.6.9,9.791,9.791,0,0,0-2.949,2.4,11.958,11.958,0,0,0-2,3.5,12.169,12.169,0,0,0-.751,4.3v28.2h-15v-28.4a11.8,11.8,0,0,0-.754-4.2,12.005,12.005,0,0,0-2.01-3.5,9.163,9.163,0,0,0-2.967-2.348,8.029,8.029,0,0,0-3.619-.852,7.676,7.676,0,0,0-3.62.9,9.837,9.837,0,0,0-2.966,2.4,12.14,12.14,0,0,0-2.763,7.8v28.2h-15v-50.9h15l.1,5.5a23.285,23.285,0,0,1,5.749-5.45,13.192,13.192,0,0,1,7.349-2.05,19.64,19.64,0,0,1,9.35,2.1,18.414,18.414,0,0,1,6.452,5.6,23.64,23.64,0,0,1,7.3-5.5,24.764,24.764,0,0,1,11.1-2.2" transform="translate(796.164 389.533)" fill="#161616"/>
        <path id="패스_793" data-name="패스 793" d="M664.465,290.893a26.439,26.439,0,0,1,10.575,2.153,28.191,28.191,0,0,1,8.729,5.85,27.381,27.381,0,0,1,8.03,19.5,26.639,26.639,0,0,1-2.145,10.6,28.275,28.275,0,0,1-5.836,8.75,27.092,27.092,0,0,1-8.682,5.9,26.654,26.654,0,0,1-10.672,2.15,19.689,19.689,0,0,1-7.983-1.661,29.841,29.841,0,0,1-7.082-4.383v29.044h-15V292.9h15v3.9a29.434,29.434,0,0,1,7.033-4.251,20.164,20.164,0,0,1,8.032-1.652M662.9,332.2a13.673,13.673,0,0,0,5.45-1.095,13.674,13.674,0,0,0,7.351-7.324,13.967,13.967,0,0,0,0-10.863,13.656,13.656,0,0,0-7.351-7.322,14.086,14.086,0,0,0-10.9,0,13.644,13.644,0,0,0-7.349,7.322,13.917,13.917,0,0,0,0,10.863,13.816,13.816,0,0,0,2.949,4.383,14.009,14.009,0,0,0,4.4,2.94A13.659,13.659,0,0,0,662.9,332.2" transform="translate(849.061 389.533)" fill="#161616"/>
        <path id="패스_794" data-name="패스 794" d="M719.22,292.9v50.9h-15v-4.044a28.2,28.2,0,0,1-7,4.383,19.774,19.774,0,0,1-8,1.661,27.359,27.359,0,0,1-19.5-8.05,28.241,28.241,0,0,1-5.851-8.75,27.282,27.282,0,0,1,.053-21.351,27.65,27.65,0,0,1,5.949-8.748,28.2,28.2,0,0,1,8.749-5.85,26.532,26.532,0,0,1,10.6-2.153,19.9,19.9,0,0,1,8,1.652,30.019,30.019,0,0,1,7,4.251v-3.9Zm-28.4,39.3a13.432,13.432,0,0,0,5.351-1.095,14.671,14.671,0,0,0,4.45-2.94,13.758,13.758,0,0,0,0-19.63,14.626,14.626,0,0,0-4.45-2.938,13.4,13.4,0,0,0-5.351-1.1,13.635,13.635,0,0,0-5.451,1.1,13.647,13.647,0,0,0-7.348,7.322,13.937,13.937,0,0,0,0,10.863,13.858,13.858,0,0,0,2.949,4.383,14.044,14.044,0,0,0,4.4,2.94,13.669,13.669,0,0,0,5.451,1.095" transform="translate(885.641 389.533)" fill="#161616"/>
        <path id="패스_795" data-name="패스 795" d="M721.671,290.893a20.77,20.77,0,0,1,8.4,1.7,22.035,22.035,0,0,1,11.5,11.5,20.824,20.824,0,0,1,1.7,8.4v31.3h-15v-28.4a10.147,10.147,0,0,0-.9-4.2,11.75,11.75,0,0,0-2.4-3.5,10.984,10.984,0,0,0-3.5-2.348,10.661,10.661,0,0,0-4.2-.852,10.363,10.363,0,0,0-4.3.9,11.562,11.562,0,0,0-5.9,5.9,10.378,10.378,0,0,0-.9,4.3v28.2h-15v-50.9h15v5.8a26.589,26.589,0,0,1,6.952-5.651,17.243,17.243,0,0,1,8.547-2.15" transform="translate(925.086 389.533)" fill="#161616"/>
        <path id="패스_796" data-name="패스 796" d="M749.228,352.349a39.532,39.532,0,0,1-5.15,8.8,22.091,22.091,0,0,1-5.9,5.252,21.291,21.291,0,0,1-6.753,2.549,39.809,39.809,0,0,1-7.6.7,27.668,27.668,0,0,1-8.8-1.4l3.1-13.7a10.88,10.88,0,0,0,2.852,1.15,12.068,12.068,0,0,0,2.849.351v.1a20.661,20.661,0,0,0,3.6-.3,9.57,9.57,0,0,0,6-3.6,19.271,19.271,0,0,0,2.5-4.3l2.1-5.3h-3l-20-50.9h15.8l13.2,34.8,13.3-34.8h15.8Z" transform="translate(957.029 390.677)" fill="#161616"/>
      </g>
    </g>
  </g>
</svg>
